# xmcd CD database file
#
# Track frame offsets:
#	150
#	13047
#	20742
#	36222
#	55547
#	64565
#	81185
#	91270
#	100672
#	113612
#	123802
#	134755
#	147560
#	163850
#
# Disc length: 2335 seconds
#
# Revision: 2
# Processed by: cddbd v1.5.2PL0 Copyright (c) Steve Scherf et al.
# Submitted via: CDex 1.51
#
DISCID=b6091d0e
DTITLE=Hermann Lammers Meyer - Above All
DYEAR=1997
DGENRE=Country
TTITLE0=They Stole My Steel Guitar
TTITLE1=Robbin' Hearts
TTITLE2=Family Man
TTITLE3=Things Have Gone To Pieces
TTITLE4=#1 Attraction
TTITLE5=Fräulein
TTITLE6=Mixed Up Mess Of A Heart
TTITLE7=Neon City
TTITLE8=Above All
TTITLE9=That Darn Song
TTITLE10=(You Don't) Make My Life Bad
TTITLE11=Ouuh, Auf Wiedersehen
TTITLE12=Lonely Mansion
TTITLE13=Along Came You
EXTD=YEAR: 1997
EXTT0=
EXTT1=
EXTT2=
EXTT3=
EXTT4=
EXTT5=
EXTT6=
EXTT7=
EXTT8=
EXTT9=
EXTT10=
EXTT11=
EXTT12=
EXTT13=
PLAYORDER=
